<svg width="160" height="36" viewBox="0 0 160 36" fill="none" xmlns="http://www.w3.org/2000/svg">

  <!-- Icon-Bereich: 36×36, vertikal zentriert -->
  <rect width="36" height="36" rx="8" fill="#0066ff"/>

  <!-- Linke Sprechblase (Quellsprache) — weiß, ausgefüllt, oben-links -->
  <path d="M3.5 5.5C3.5 4.7 4.2 4 5 4H19C19.8 4 20.5 4.7 20.5 5.5V13.5C20.5 14.3 19.8 15 19 15H11.5L7.5 18V15H5C4.2 15 3.5 14.3 3.5 13.5V5.5Z"
        fill="white"/>

  <!-- Rechte Sprechblase (Zielsprache) — weiß, konturiert, halbtransparent, unten-rechts -->
  <path d="M15.5 15.5C15.5 14.7 16.2 14 17 14H30C30.8 14 31.5 14.7 31.5 15.5V22.5C31.5 23.3 30.8 24 30 24H27V26.5L23.5 24H17C16.2 24 15.5 23.3 15.5 22.5V15.5Z"
        fill="white" fill-opacity="0.28" stroke="white" stroke-width="1.1" stroke-linejoin="round"/>

  <!-- Übersetzungspfeil — Chevron zwischen den Blasen -->
  <path d="M19.5 11L22 13.5L19.5 16"
        stroke="white" stroke-width="1.4" stroke-linecap="round" stroke-linejoin="round" fill="none" opacity="0.85"/>

  <!-- Schriftzug "Senten" — Inter Bold, 18px, für Light-Mode-Header -->
  <text
    x="44"
    y="24"
    font-family="Inter, -apple-system, BlinkMacSystemFont, 'Segoe UI', sans-serif"
    font-weight="700"
    font-size="18"
    letter-spacing="-0.4"
    fill="#1a1a2e">Senten</text>

</svg>
